<?xml version="1.0" encoding="UTF-8"?>
<!DOCTYPE svg PUBLIC "-//W3C//DTD SVG 1.1//EN" "http://www.w3.org/Graphics/SVG/1.1/DTD/svg11.dtd">
<!-- Creator: CorelDRAW 2019 (64-Bit) -->
<svg xmlns="http://www.w3.org/2000/svg" xml:space="preserve" width="7.5337mm" height="11.4891mm" version="1.1" style="shape-rendering:geometricPrecision; text-rendering:geometricPrecision; image-rendering:optimizeQuality; fill-rule:evenodd; clip-rule:evenodd"
viewBox="0 0 9052.1 13804.69"
 xmlns:xlink="http://www.w3.org/1999/xlink">
 <defs>
  <style type="text/css">
   <![CDATA[
    .fil0 {fill:#02694F}
   ]]>
  </style>
 </defs>
 <g id="Layer_x0020_1">
  <metadata id="CorelCorpID_0Corel-Layer"/>
  <path class="fil0" d="M3755.68 13804.69l0 -6562.85 -2889 0 0 -4332.18 1444.5 0 0 2909.67 1476.58 0 0 -5819.33 1412.42 0 0 3717.95 1476.58 0 0 -1907.46 1444.5 0 0 3362.29 -2921.08 0 0 8631.91 -1444.5 0zm-3145.77 -10765.74l-609.91 614.35 609.91 614.23 0 -1228.58zm0 1422.51l-609.91 614.35 609.91 614.23 0 -1228.58zm0 1390.19l-577.82 614.35 609.91 614.23 0 -1228.58 -32.08 0zm7768.24 -872.92l673.95 -678.87 -673.95 -678.87 0 1357.75zm0 -1584.12l673.95 -678.87 -673.95 -678.99 0 1357.87z"/>
 </g>
</svg>
